<?xml version="1.0" encoding="UTF-8" standalone="no"?>
<svg xmlns="http://www.w3.org/2000/svg" width="1309" height="528" viewBox="0 0 1309 528" role="img" aria-label="Environmental Science and Technology logo">
  <rect width="100%" height="100%" fill="#ffffff"/>
  <path d="M 618.0 75.0 L 618.0 322.0 L 647.0 322.0 L 647.0 121.0 L 648.0 120.0 L 648.0 116.0 L 651.0 110.0 L 658.0 103.0 L 662.0 102.0 L 663.0 101.0 L 667.0 101.0 L 671.0 104.0 L 673.0 108.0 L 673.0 323.0 L 703.0 323.0 L 703.0 305.0 L 704.0 304.0 L 714.0 304.0 L 715.0 305.0 L 715.0 322.0 L 717.0 322.0 L 718.0 323.0 L 718.0 460.0 L 718.0 322.0 L 717.0 321.0 L 717.0 305.0 L 715.0 304.0 L 704.0 304.0 L 703.0 305.0 L 697.0 305.0 L 696.0 304.0 L 696.0 286.0 L 697.0 285.0 L 761.0 285.0 L 762.0 286.0 L 762.0 303.0 L 761.0 304.0 L 745.0 304.0 L 744.0 305.0 L 742.0 305.0 L 742.0 322.0 L 741.0 323.0 L 741.0 460.0 L 741.0 323.0 L 742.0 322.0 L 745.0 322.0 L 745.0 305.0 L 746.0 304.0 L 762.0 304.0 L 762.0 285.0 L 746.0 285.0 L 745.0 284.0 L 745.0 106.0 L 746.0 105.0 L 746.0 103.0 L 749.0 100.0 L 755.0 100.0 L 757.0 101.0 L 761.0 105.0 L 763.0 109.0 L 763.0 111.0 L 764.0 112.0 L 764.0 115.0 L 765.0 116.0 L 765.0 322.0 L 795.0 322.0 L 795.0 118.0 L 796.0 117.0 L 796.0 113.0 L 797.0 112.0 L 797.0 110.0 L 799.0 106.0 L 804.0 101.0 L 806.0 100.0 L 811.0 100.0 L 815.0 105.0 L 815.0 322.0 L 845.0 322.0 L 845.0 103.0 L 844.0 102.0 L 843.0 94.0 L 838.0 85.0 L 832.0 79.0 L 825.0 75.0 L 819.0 74.0 L 818.0 73.0 L 804.0 73.0 L 803.0 74.0 L 798.0 75.0 L 791.0 79.0 L 788.0 82.0 L 787.0 82.0 L 781.0 89.0 L 774.0 82.0 L 773.0 82.0 L 767.0 77.0 L 763.0 75.0 L 761.0 75.0 L 760.0 74.0 L 757.0 74.0 L 756.0 73.0 L 742.0 73.0 L 738.0 75.0 L 735.0 75.0 L 728.0 79.0 L 722.0 85.0 L 717.0 94.0 L 716.0 102.0 L 715.0 103.0 L 715.0 284.0 L 714.0 285.0 L 704.0 285.0 L 703.0 284.0 L 703.0 105.0 L 702.0 104.0 L 702.0 100.0 L 701.0 99.0 L 700.0 93.0 L 695.0 84.0 L 690.0 79.0 L 683.0 75.0 L 681.0 75.0 L 677.0 73.0 L 663.0 73.0 L 662.0 74.0 L 659.0 74.0 L 651.0 78.0 L 648.0 81.0 L 646.0 80.0 L 646.0 75.0 Z M 139.0 28.0 L 138.0 29.0 L 124.0 29.0 L 123.0 30.0 L 113.0 31.0 L 112.0 32.0 L 106.0 33.0 L 103.0 35.0 L 101.0 35.0 L 95.0 38.0 L 93.0 40.0 L 89.0 42.0 L 80.0 51.0 L 80.0 52.0 L 75.0 58.0 L 71.0 66.0 L 71.0 68.0 L 69.0 71.0 L 69.0 73.0 L 67.0 77.0 L 66.0 84.0 L 65.0 85.0 L 65.0 89.0 L 64.0 90.0 L 64.0 96.0 L 63.0 97.0 L 63.0 107.0 L 62.0 108.0 L 62.0 214.0 L 61.0 215.0 L 44.0 215.0 L 44.0 260.0 L 61.0 260.0 L 62.0 261.0 L 62.0 379.0 L 63.0 380.0 L 63.0 389.0 L 64.0 390.0 L 64.0 396.0 L 65.0 397.0 L 66.0 405.0 L 67.0 406.0 L 67.0 408.0 L 68.0 409.0 L 70.0 417.0 L 74.0 425.0 L 76.0 427.0 L 78.0 431.0 L 85.0 439.0 L 86.0 439.0 L 90.0 443.0 L 91.0 443.0 L 96.0 447.0 L 104.0 451.0 L 106.0 451.0 L 110.0 453.0 L 113.0 453.0 L 114.0 454.0 L 117.0 454.0 L 118.0 455.0 L 122.0 455.0 L 123.0 456.0 L 130.0 456.0 L 131.0 457.0 L 150.0 457.0 L 151.0 456.0 L 165.0 456.0 L 166.0 455.0 L 180.0 455.0 L 181.0 454.0 L 186.0 454.0 L 186.0 410.0 L 184.0 410.0 L 183.0 411.0 L 177.0 411.0 L 176.0 412.0 L 169.0 412.0 L 168.0 413.0 L 156.0 413.0 L 155.0 414.0 L 150.0 414.0 L 149.0 413.0 L 141.0 413.0 L 140.0 412.0 L 137.0 412.0 L 136.0 411.0 L 134.0 411.0 L 133.0 410.0 L 129.0 409.0 L 121.0 402.0 L 117.0 395.0 L 117.0 393.0 L 115.0 389.0 L 115.0 385.0 L 114.0 384.0 L 114.0 376.0 L 113.0 375.0 L 113.0 261.0 L 114.0 260.0 L 175.0 260.0 L 175.0 215.0 L 114.0 215.0 L 113.0 214.0 L 113.0 105.0 L 114.0 104.0 L 114.0 94.0 L 115.0 93.0 L 115.0 88.0 L 116.0 87.0 L 116.0 85.0 L 118.0 81.0 L 126.0 74.0 L 128.0 74.0 L 132.0 72.0 L 141.0 72.0 L 142.0 71.0 L 149.0 71.0 L 150.0 72.0 L 165.0 72.0 L 166.0 73.0 L 180.0 73.0 L 180.0 30.0 L 165.0 30.0 L 164.0 29.0 L 142.0 29.0 L 141.0 28.0 Z M 1166.0 75.0 L 1164.0 75.0 L 1163.0 74.0 L 1159.0 74.0 L 1158.0 73.0 L 1142.0 73.0 L 1141.0 74.0 L 1138.0 74.0 L 1137.0 75.0 L 1132.0 76.0 L 1125.0 80.0 L 1116.0 89.0 L 1111.0 99.0 L 1110.0 98.0 L 1110.0 75.0 L 1026.0 75.0 L 1026.0 101.0 L 1053.0 101.0 L 1054.0 102.0 L 1054.0 322.0 L 1062.0 322.0 L 1062.0 287.0 L 1063.0 286.0 L 1083.0 286.0 L 1083.0 102.0 L 1084.0 101.0 L 1109.0 101.0 L 1110.0 102.0 L 1110.0 104.0 L 1109.0 105.0 L 1109.0 110.0 L 1108.0 111.0 L 1108.0 177.0 L 1107.0 178.0 L 1098.0 178.0 L 1098.0 206.0 L 1107.0 206.0 L 1108.0 207.0 L 1108.0 322.0 L 1133.0 322.0 L 1134.0 323.0 L 1138.0 323.0 L 1138.0 207.0 L 1139.0 206.0 L 1163.0 206.0 L 1164.0 207.0 L 1164.0 322.0 L 1193.0 322.0 L 1193.0 109.0 L 1192.0 108.0 L 1192.0 104.0 L 1191.0 103.0 L 1191.0 101.0 L 1186.0 91.0 L 1183.0 88.0 L 1183.0 87.0 L 1177.0 81.0 Z M 557.0 73.0 L 556.0 74.0 L 552.0 74.0 L 551.0 75.0 L 549.0 75.0 L 543.0 78.0 L 541.0 80.0 L 540.0 80.0 L 533.0 87.0 L 527.0 98.0 L 526.0 104.0 L 525.0 105.0 L 525.0 108.0 L 524.0 109.0 L 524.0 114.0 L 523.0 115.0 L 523.0 282.0 L 524.0 283.0 L 524.0 288.0 L 525.0 289.0 L 525.0 292.0 L 526.0 293.0 L 526.0 296.0 L 528.0 299.0 L 528.0 301.0 L 531.0 307.0 L 539.0 316.0 L 550.0 322.0 L 553.0 322.0 L 554.0 323.0 L 560.0 323.0 L 561.0 324.0 L 570.0 324.0 L 571.0 323.0 L 576.0 323.0 L 577.0 322.0 L 583.0 321.0 L 589.0 318.0 L 592.0 315.0 L 593.0 315.0 L 593.0 314.0 L 598.0 309.0 L 603.0 300.0 L 603.0 298.0 L 605.0 295.0 L 605.0 292.0 L 606.0 291.0 L 606.0 287.0 L 607.0 286.0 L 607.0 280.0 L 608.0 279.0 L 608.0 118.0 L 607.0 117.0 L 606.0 106.0 L 605.0 105.0 L 603.0 97.0 L 599.0 89.0 L 592.0 81.0 L 591.0 81.0 L 584.0 76.0 L 582.0 76.0 L 578.0 74.0 L 575.0 74.0 L 574.0 73.0 Z M 425.0 75.0 L 425.0 179.0 L 424.0 180.0 L 415.0 180.0 L 415.0 207.0 L 424.0 207.0 L 425.0 208.0 L 425.0 323.0 L 429.0 323.0 L 430.0 322.0 L 455.0 322.0 L 455.0 207.0 L 456.0 206.0 L 463.0 206.0 L 464.0 207.0 L 467.0 207.0 L 471.0 209.0 L 478.0 217.0 L 478.0 219.0 L 480.0 223.0 L 480.0 227.0 L 481.0 228.0 L 481.0 322.0 L 506.0 322.0 L 507.0 323.0 L 511.0 323.0 L 511.0 229.0 L 510.0 228.0 L 510.0 218.0 L 509.0 217.0 L 508.0 209.0 L 507.0 208.0 L 507.0 206.0 L 505.0 202.0 L 497.0 193.0 L 493.0 191.0 L 495.0 190.0 L 505.0 180.0 L 509.0 172.0 L 509.0 169.0 L 510.0 168.0 L 510.0 162.0 L 511.0 161.0 L 511.0 118.0 L 510.0 117.0 L 510.0 109.0 L 509.0 108.0 L 508.0 101.0 L 506.0 98.0 L 505.0 94.0 L 503.0 92.0 L 501.0 88.0 L 496.0 83.0 L 485.0 77.0 L 477.0 76.0 L 476.0 75.0 Z M 939.0 75.0 L 939.0 322.0 L 969.0 322.0 L 969.0 118.0 L 970.0 117.0 L 971.0 112.0 L 978.0 104.0 L 984.0 101.0 L 988.0 101.0 L 993.0 105.0 L 994.0 109.0 L 995.0 110.0 L 995.0 323.0 L 1024.0 323.0 L 1024.0 103.0 L 1023.0 102.0 L 1023.0 98.0 L 1022.0 97.0 L 1021.0 92.0 L 1017.0 85.0 L 1010.0 78.0 L 1002.0 74.0 L 999.0 74.0 L 998.0 73.0 L 984.0 73.0 L 983.0 74.0 L 981.0 74.0 L 980.0 75.0 L 978.0 75.0 L 974.0 77.0 L 968.0 82.0 L 967.0 81.0 L 967.0 75.0 Z M 241.0 73.0 L 227.0 73.0 L 226.0 74.0 L 224.0 74.0 L 223.0 75.0 L 221.0 75.0 L 217.0 77.0 L 211.0 82.0 L 210.0 81.0 L 210.0 75.0 L 182.0 75.0 L 182.0 322.0 L 199.0 322.0 L 200.0 323.0 L 200.0 332.0 L 200.0 314.0 L 201.0 313.0 L 201.0 309.0 L 202.0 308.0 L 203.0 303.0 L 206.0 297.0 L 211.0 291.0 L 212.0 291.0 L 215.0 288.0 L 221.0 285.0 L 223.0 285.0 L 221.0 285.0 L 215.0 288.0 L 213.0 290.0 L 212.0 289.0 L 212.0 119.0 L 213.0 118.0 L 213.0 115.0 L 217.0 108.0 L 221.0 104.0 L 227.0 101.0 L 231.0 101.0 L 233.0 102.0 L 237.0 106.0 L 237.0 108.0 L 238.0 109.0 L 238.0 282.0 L 237.0 283.0 L 232.0 283.0 L 242.0 283.0 L 243.0 284.0 L 246.0 284.0 L 252.0 287.0 L 260.0 295.0 L 265.0 306.0 L 265.0 309.0 L 266.0 310.0 L 266.0 313.0 L 267.0 314.0 L 267.0 320.0 L 268.0 321.0 L 267.0 324.0 L 268.0 323.0 L 268.0 111.0 L 267.0 110.0 L 267.0 102.0 L 266.0 101.0 L 266.0 97.0 L 261.0 86.0 L 253.0 78.0 L 252.0 78.0 L 250.0 76.0 L 246.0 75.0 L 245.0 74.0 L 242.0 74.0 Z M 275.0 75.0 L 276.0 87.0 L 277.0 88.0 L 277.0 93.0 L 278.0 94.0 L 278.0 99.0 L 279.0 100.0 L 279.0 105.0 L 280.0 106.0 L 280.0 112.0 L 281.0 113.0 L 281.0 118.0 L 282.0 119.0 L 282.0 124.0 L 283.0 125.0 L 283.0 131.0 L 284.0 132.0 L 284.0 137.0 L 285.0 138.0 L 285.0 143.0 L 286.0 144.0 L 286.0 149.0 L 287.0 150.0 L 287.0 156.0 L 288.0 157.0 L 288.0 162.0 L 289.0 163.0 L 289.0 168.0 L 290.0 169.0 L 290.0 174.0 L 291.0 175.0 L 291.0 181.0 L 292.0 182.0 L 292.0 187.0 L 293.0 188.0 L 293.0 193.0 L 294.0 194.0 L 294.0 200.0 L 295.0 201.0 L 295.0 206.0 L 296.0 207.0 L 296.0 212.0 L 297.0 213.0 L 297.0 218.0 L 298.0 219.0 L 298.0 225.0 L 299.0 226.0 L 299.0 231.0 L 300.0 232.0 L 300.0 237.0 L 301.0 238.0 L 301.0 243.0 L 302.0 244.0 L 302.0 250.0 L 303.0 251.0 L 303.0 256.0 L 304.0 257.0 L 304.0 262.0 L 305.0 263.0 L 305.0 269.0 L 306.0 270.0 L 306.0 275.0 L 307.0 276.0 L 307.0 281.0 L 308.0 282.0 L 308.0 287.0 L 309.0 288.0 L 309.0 294.0 L 310.0 295.0 L 310.0 300.0 L 311.0 301.0 L 311.0 306.0 L 312.0 307.0 L 312.0 312.0 L 313.0 313.0 L 313.0 319.0 L 314.0 320.0 L 314.0 322.0 L 339.0 322.0 L 339.0 320.0 L 340.0 319.0 L 340.0 312.0 L 341.0 311.0 L 341.0 304.0 L 342.0 303.0 L 342.0 296.0 L 343.0 295.0 L 343.0 288.0 L 344.0 287.0 L 344.0 280.0 L 345.0 279.0 L 345.0 272.0 L 346.0 271.0 L 346.0 264.0 L 347.0 263.0 L 347.0 256.0 L 348.0 255.0 L 348.0 248.0 L 349.0 247.0 L 349.0 240.0 L 350.0 239.0 L 350.0 232.0 L 351.0 231.0 L 352.0 217.0 L 353.0 216.0 L 353.0 209.0 L 354.0 208.0 L 354.0 201.0 L 355.0 200.0 L 355.0 193.0 L 356.0 192.0 L 356.0 185.0 L 357.0 184.0 L 357.0 177.0 L 358.0 176.0 L 358.0 169.0 L 359.0 168.0 L 359.0 161.0 L 360.0 160.0 L 360.0 153.0 L 361.0 152.0 L 361.0 145.0 L 362.0 144.0 L 362.0 137.0 L 363.0 136.0 L 363.0 129.0 L 364.0 128.0 L 364.0 122.0 L 365.0 121.0 L 365.0 114.0 L 366.0 113.0 L 366.0 106.0 L 367.0 105.0 L 367.0 98.0 L 368.0 97.0 L 368.0 90.0 L 369.0 89.0 L 370.0 75.0 L 341.0 75.0 L 340.0 77.0 L 339.0 93.0 L 338.0 94.0 L 338.0 102.0 L 337.0 103.0 L 336.0 119.0 L 335.0 120.0 L 335.0 128.0 L 334.0 129.0 L 334.0 137.0 L 333.0 138.0 L 332.0 154.0 L 331.0 155.0 L 331.0 163.0 L 330.0 164.0 L 330.0 172.0 L 329.0 173.0 L 328.0 189.0 L 327.0 190.0 L 327.0 198.0 L 326.0 199.0 L 326.0 204.0 L 325.0 205.0 L 324.0 204.0 L 324.0 199.0 L 323.0 198.0 L 323.0 192.0 L 322.0 191.0 L 321.0 179.0 L 320.0 178.0 L 320.0 173.0 L 319.0 172.0 L 319.0 167.0 L 318.0 166.0 L 318.0 160.0 L 317.0 159.0 L 316.0 147.0 L 315.0 146.0 L 315.0 141.0 L 314.0 140.0 L 314.0 135.0 L 313.0 134.0 L 313.0 128.0 L 312.0 127.0 L 312.0 122.0 L 311.0 121.0 L 311.0 115.0 L 310.0 114.0 L 310.0 109.0 L 309.0 108.0 L 309.0 102.0 L 308.0 101.0 L 308.0 96.0 L 307.0 95.0 L 307.0 90.0 L 306.0 89.0 L 305.0 77.0 L 304.0 75.0 Z M 924.0 75.0 L 894.0 75.0 L 893.0 76.0 L 889.0 76.0 L 883.0 79.0 L 881.0 79.0 L 879.0 81.0 L 875.0 83.0 L 870.0 88.0 L 865.0 97.0 L 865.0 99.0 L 863.0 103.0 L 863.0 106.0 L 862.0 107.0 L 862.0 111.0 L 861.0 112.0 L 861.0 123.0 L 860.0 124.0 L 860.0 181.0 L 859.0 182.0 L 850.0 182.0 L 850.0 208.0 L 859.0 208.0 L 860.0 209.0 L 860.0 277.0 L 861.0 278.0 L 861.0 285.0 L 862.0 286.0 L 862.0 291.0 L 863.0 292.0 L 864.0 297.0 L 866.0 300.0 L 866.0 302.0 L 868.0 304.0 L 869.0 307.0 L 872.0 310.0 L 872.0 287.0 L 873.0 286.0 L 892.0 286.0 L 895.0 288.0 L 895.0 291.0 L 896.0 292.0 L 896.0 320.0 L 895.0 321.0 L 895.0 338.0 L 903.0 334.0 L 914.0 334.0 L 903.0 334.0 L 902.0 335.0 L 898.0 336.0 L 896.0 338.0 L 895.0 337.0 L 895.0 322.0 L 896.0 321.0 L 897.0 322.0 L 918.0 322.0 L 919.0 321.0 L 932.0 321.0 L 932.0 295.0 L 930.0 295.0 L 929.0 296.0 L 922.0 296.0 L 921.0 297.0 L 906.0 297.0 L 905.0 296.0 L 900.0 295.0 L 895.0 291.0 L 895.0 287.0 L 893.0 287.0 L 891.0 284.0 L 891.0 280.0 L 890.0 279.0 L 890.0 209.0 L 891.0 208.0 L 925.0 208.0 L 925.0 183.0 L 891.0 183.0 L 890.0 182.0 L 890.0 113.0 L 891.0 112.0 L 892.0 106.0 L 896.0 102.0 L 900.0 100.0 L 907.0 100.0 L 909.0 99.0 L 910.0 100.0 L 924.0 100.0 L 925.0 101.0 L 929.0 101.0 L 929.0 76.0 L 925.0 76.0 Z M 1204.0 75.0 L 1204.0 322.0 L 1279.0 322.0 L 1279.0 295.0 L 1235.0 295.0 L 1234.0 294.0 L 1234.0 75.0 Z M 378.0 75.0 L 378.0 322.0 L 407.0 322.0 L 407.0 75.0 Z M 562.0 98.0 L 569.0 98.0 L 571.0 99.0 L 576.0 104.0 L 577.0 110.0 L 578.0 111.0 L 578.0 284.0 L 577.0 285.0 L 577.0 288.0 L 576.0 289.0 L 575.0 293.0 L 570.0 298.0 L 568.0 298.0 L 567.0 299.0 L 560.0 298.0 L 556.0 295.0 L 554.0 291.0 L 554.0 289.0 L 553.0 288.0 L 553.0 283.0 L 552.0 282.0 L 552.0 116.0 L 553.0 115.0 L 553.0 109.0 L 554.0 108.0 L 554.0 106.0 L 556.0 102.0 L 558.0 100.0 Z M 1148.0 98.0 L 1153.0 98.0 L 1154.0 99.0 L 1156.0 99.0 L 1162.0 105.0 L 1162.0 107.0 L 1163.0 108.0 L 1163.0 112.0 L 1164.0 113.0 L 1164.0 177.0 L 1163.0 178.0 L 1139.0 178.0 L 1138.0 177.0 L 1138.0 109.0 L 1139.0 108.0 L 1139.0 105.0 L 1141.0 103.0 L 1141.0 102.0 L 1143.0 100.0 L 1147.0 99.0 Z M 456.0 100.0 L 467.0 100.0 L 468.0 101.0 L 470.0 101.0 L 474.0 103.0 L 479.0 110.0 L 479.0 112.0 L 480.0 113.0 L 480.0 118.0 L 481.0 119.0 L 481.0 162.0 L 480.0 163.0 L 480.0 166.0 L 479.0 167.0 L 478.0 171.0 L 474.0 176.0 L 473.0 176.0 L 471.0 178.0 L 469.0 178.0 L 468.0 179.0 L 464.0 179.0 L 463.0 180.0 L 456.0 180.0 L 455.0 179.0 L 455.0 101.0 Z M 231.0 307.0 L 230.0 309.0 L 233.0 306.0 L 236.0 306.0 L 238.0 308.0 L 238.0 323.0 L 241.0 323.0 L 242.0 324.0 L 242.0 337.0 L 243.0 338.0 L 268.0 338.0 L 268.0 331.0 L 268.0 337.0 L 267.0 338.0 L 243.0 338.0 L 242.0 337.0 L 242.0 324.0 L 241.0 323.0 L 241.0 319.0 L 240.0 318.0 L 240.0 312.0 L 239.0 311.0 L 239.0 309.0 L 236.0 306.0 L 233.0 306.0 Z M 272.0 368.0 L 272.0 405.0 L 271.0 406.0 L 271.0 412.0 L 272.0 413.0 L 272.0 424.0 L 271.0 425.0 L 271.0 430.0 L 272.0 428.0 Z M 1183.0 353.0 L 1181.0 355.0 L 1181.0 356.0 L 1181.0 355.0 L 1183.0 353.0 L 1187.0 353.0 L 1193.0 359.0 L 1194.0 361.0 L 1194.0 436.0 L 1187.0 443.0 L 1183.0 443.0 L 1180.0 440.0 L 1180.0 358.0 L 1180.0 440.0 L 1181.0 442.0 L 1183.0 443.0 L 1187.0 443.0 L 1189.0 441.0 L 1190.0 441.0 L 1194.0 436.0 L 1194.0 360.0 L 1191.0 357.0 L 1191.0 356.0 L 1187.0 353.0 Z M 231.0 338.0 L 235.0 347.0 L 237.0 349.0 L 241.0 356.0 L 255.0 372.0 L 255.0 373.0 L 258.0 376.0 L 258.0 377.0 L 260.0 379.0 L 264.0 386.0 L 262.0 382.0 L 256.0 374.0 L 256.0 373.0 L 239.0 353.0 L 239.0 352.0 L 235.0 347.0 Z M 264.0 448.0 L 262.0 450.0 L 262.0 451.0 L 260.0 452.0 L 255.0 457.0 L 248.0 460.0 L 258.0 455.0 Z M 204.0 346.0 L 207.0 353.0 L 209.0 355.0 L 211.0 359.0 L 235.0 388.0 L 240.0 398.0 L 235.0 388.0 L 211.0 359.0 L 211.0 358.0 L 207.0 353.0 Z M 1213.0 482.0 L 1211.0 487.0 L 1204.0 494.0 L 1202.0 495.0 L 1209.0 490.0 Z M 801.0 447.0 L 799.0 452.0 L 792.0 459.0 L 787.0 461.0 L 795.0 457.0 L 799.0 452.0 Z M 1171.0 336.0 L 1164.0 341.0 L 1160.0 349.0 L 1162.0 344.0 L 1169.0 337.0 Z M 1005.0 447.0 L 1009.0 455.0 L 1014.0 459.0 L 1010.0 456.0 L 1010.0 455.0 L 1007.0 452.0 Z M 417.0 444.0 L 417.0 446.0 L 412.0 455.0 L 406.0 460.0 L 405.0 460.0 L 409.0 458.0 L 413.0 454.0 L 417.0 446.0 Z M 673.0 399.0 L 673.0 411.0 L 672.0 412.0 L 673.0 414.0 L 673.0 400.0 L 674.0 399.0 L 692.0 399.0 L 693.0 400.0 L 693.0 420.0 L 693.0 399.0 Z M 684.0 366.0 L 684.0 368.0 L 683.0 369.0 L 683.0 371.0 L 681.0 375.0 L 679.0 377.0 L 677.0 381.0 L 665.0 395.0 L 666.0 399.0 L 665.0 395.0 L 674.0 385.0 L 674.0 384.0 L 677.0 381.0 L 677.0 380.0 L 681.0 375.0 L 683.0 371.0 Z M 771.0 354.0 L 771.0 357.0 L 771.0 354.0 L 774.0 351.0 L 778.0 351.0 L 781.0 354.0 L 781.0 356.0 L 780.0 352.0 L 778.0 351.0 L 773.0 351.0 Z M 1194.0 335.0 L 1192.0 336.0 L 1194.0 337.0 L 1195.0 335.0 L 1215.0 335.0 L 1216.0 336.0 L 1216.0 471.0 L 1216.0 335.0 Z M 831.0 334.0 L 829.0 334.0 L 823.0 337.0 L 819.0 341.0 L 816.0 347.0 L 817.0 344.0 L 822.0 338.0 L 829.0 334.0 Z" fill="#276e43" fill-rule="evenodd"/>
  <path d="M 1215.0 336.0 L 1195.0 336.0 L 1194.0 338.0 L 1188.0 335.0 L 1176.0 335.0 L 1175.0 336.0 L 1172.0 336.0 L 1163.0 344.0 L 1160.0 350.0 L 1160.0 353.0 L 1159.0 354.0 L 1159.0 362.0 L 1158.0 363.0 L 1158.0 435.0 L 1159.0 436.0 L 1159.0 444.0 L 1160.0 445.0 L 1160.0 448.0 L 1163.0 454.0 L 1168.0 459.0 L 1172.0 461.0 L 1174.0 461.0 L 1175.0 462.0 L 1183.0 462.0 L 1193.0 457.0 L 1195.0 458.0 L 1195.0 471.0 L 1194.0 472.0 L 1193.0 476.0 L 1189.0 480.0 L 1187.0 481.0 L 1183.0 481.0 L 1182.0 482.0 L 1180.0 481.0 L 1171.0 481.0 L 1171.0 484.0 L 1170.0 485.0 L 1170.0 488.0 L 1169.0 489.0 L 1169.0 493.0 L 1168.0 494.0 L 1169.0 495.0 L 1171.0 495.0 L 1175.0 497.0 L 1182.0 497.0 L 1183.0 498.0 L 1185.0 498.0 L 1186.0 497.0 L 1194.0 497.0 L 1195.0 496.0 L 1201.0 495.0 L 1210.0 487.0 L 1213.0 481.0 L 1213.0 479.0 L 1214.0 478.0 L 1214.0 473.0 L 1215.0 472.0 Z M 229.0 284.0 L 228.0 285.0 L 224.0 285.0 L 223.0 286.0 L 221.0 286.0 L 215.0 289.0 L 212.0 292.0 L 211.0 292.0 L 207.0 297.0 L 204.0 303.0 L 204.0 305.0 L 202.0 309.0 L 202.0 313.0 L 201.0 314.0 L 201.0 335.0 L 202.0 336.0 L 202.0 339.0 L 203.0 340.0 L 204.0 345.0 L 208.0 353.0 L 210.0 355.0 L 212.0 359.0 L 215.0 362.0 L 215.0 363.0 L 230.0 380.0 L 230.0 381.0 L 236.0 388.0 L 237.0 391.0 L 239.0 393.0 L 241.0 397.0 L 241.0 399.0 L 243.0 402.0 L 244.0 409.0 L 245.0 410.0 L 245.0 420.0 L 246.0 421.0 L 245.0 423.0 L 245.0 430.0 L 244.0 431.0 L 243.0 435.0 L 238.0 440.0 L 234.0 440.0 L 229.0 436.0 L 229.0 434.0 L 228.0 433.0 L 228.0 403.0 L 201.0 403.0 L 201.0 425.0 L 202.0 426.0 L 202.0 432.0 L 203.0 433.0 L 203.0 437.0 L 204.0 438.0 L 205.0 443.0 L 209.0 450.0 L 214.0 455.0 L 224.0 460.0 L 228.0 460.0 L 229.0 461.0 L 242.0 461.0 L 243.0 460.0 L 247.0 460.0 L 255.0 456.0 L 260.0 451.0 L 261.0 451.0 L 261.0 450.0 L 264.0 447.0 L 268.0 439.0 L 268.0 436.0 L 269.0 435.0 L 269.0 432.0 L 270.0 431.0 L 270.0 425.0 L 271.0 424.0 L 271.0 413.0 L 270.0 412.0 L 270.0 405.0 L 269.0 404.0 L 268.0 397.0 L 267.0 396.0 L 267.0 394.0 L 265.0 391.0 L 264.0 387.0 L 262.0 385.0 L 261.0 382.0 L 259.0 380.0 L 257.0 376.0 L 254.0 373.0 L 254.0 372.0 L 240.0 356.0 L 240.0 355.0 L 234.0 347.0 L 230.0 339.0 L 230.0 337.0 L 228.0 333.0 L 228.0 329.0 L 227.0 328.0 L 227.0 314.0 L 228.0 313.0 L 228.0 311.0 L 230.0 307.0 L 233.0 305.0 L 236.0 305.0 L 240.0 309.0 L 240.0 311.0 L 241.0 312.0 L 241.0 318.0 L 242.0 319.0 L 242.0 323.0 L 243.0 324.0 L 243.0 337.0 L 267.0 337.0 L 267.0 325.0 L 266.0 324.0 L 267.0 321.0 L 266.0 320.0 L 266.0 314.0 L 265.0 313.0 L 265.0 310.0 L 264.0 309.0 L 263.0 303.0 L 259.0 295.0 L 252.0 288.0 L 246.0 285.0 L 243.0 285.0 L 242.0 284.0 Z M 873.0 287.0 L 873.0 460.0 L 894.0 460.0 L 894.0 359.0 L 899.0 354.0 L 901.0 353.0 L 905.0 353.0 L 907.0 355.0 L 907.0 460.0 L 928.0 460.0 L 928.0 352.0 L 927.0 351.0 L 927.0 347.0 L 924.0 341.0 L 920.0 337.0 L 916.0 336.0 L 915.0 335.0 L 903.0 335.0 L 902.0 336.0 L 898.0 337.0 L 896.0 339.0 L 894.0 338.0 L 894.0 321.0 L 895.0 320.0 L 895.0 292.0 L 894.0 291.0 L 894.0 288.0 L 892.0 287.0 Z M 1119.0 333.0 L 1118.0 334.0 L 1113.0 334.0 L 1112.0 335.0 L 1110.0 335.0 L 1106.0 337.0 L 1100.0 343.0 L 1097.0 349.0 L 1097.0 351.0 L 1096.0 352.0 L 1096.0 356.0 L 1095.0 357.0 L 1095.0 365.0 L 1094.0 366.0 L 1094.0 430.0 L 1095.0 431.0 L 1095.0 439.0 L 1096.0 440.0 L 1096.0 443.0 L 1097.0 444.0 L 1098.0 449.0 L 1100.0 451.0 L 1101.0 454.0 L 1107.0 459.0 L 1111.0 460.0 L 1112.0 461.0 L 1116.0 461.0 L 1117.0 462.0 L 1126.0 462.0 L 1127.0 461.0 L 1131.0 461.0 L 1132.0 460.0 L 1134.0 460.0 L 1138.0 458.0 L 1145.0 450.0 L 1145.0 448.0 L 1147.0 445.0 L 1147.0 442.0 L 1148.0 441.0 L 1148.0 435.0 L 1149.0 434.0 L 1149.0 362.0 L 1148.0 361.0 L 1148.0 355.0 L 1147.0 354.0 L 1146.0 348.0 L 1143.0 342.0 L 1139.0 338.0 L 1131.0 334.0 Z M 1224.0 335.0 L 1224.0 356.0 L 1225.0 357.0 L 1225.0 440.0 L 1226.0 441.0 L 1227.0 449.0 L 1229.0 453.0 L 1233.0 458.0 L 1234.0 458.0 L 1238.0 461.0 L 1241.0 461.0 L 1242.0 462.0 L 1250.0 462.0 L 1251.0 461.0 L 1255.0 460.0 L 1260.0 456.0 L 1261.0 457.0 L 1261.0 469.0 L 1260.0 470.0 L 1259.0 476.0 L 1255.0 480.0 L 1253.0 481.0 L 1250.0 481.0 L 1249.0 482.0 L 1247.0 481.0 L 1238.0 481.0 L 1237.0 489.0 L 1236.0 490.0 L 1236.0 494.0 L 1235.0 495.0 L 1241.0 496.0 L 1242.0 497.0 L 1249.0 497.0 L 1250.0 498.0 L 1252.0 497.0 L 1260.0 497.0 L 1261.0 496.0 L 1264.0 496.0 L 1270.0 493.0 L 1275.0 488.0 L 1275.0 487.0 L 1278.0 483.0 L 1278.0 481.0 L 1280.0 478.0 L 1280.0 474.0 L 1281.0 473.0 L 1281.0 357.0 L 1282.0 356.0 L 1282.0 335.0 L 1260.0 335.0 L 1260.0 356.0 L 1261.0 357.0 L 1261.0 436.0 L 1254.0 443.0 L 1252.0 443.0 L 1251.0 444.0 L 1249.0 444.0 L 1246.0 441.0 L 1246.0 335.0 Z M 1027.0 333.0 L 1026.0 334.0 L 1021.0 334.0 L 1020.0 335.0 L 1018.0 335.0 L 1014.0 337.0 L 1008.0 343.0 L 1006.0 347.0 L 1005.0 352.0 L 1004.0 353.0 L 1004.0 358.0 L 1003.0 359.0 L 1003.0 438.0 L 1004.0 439.0 L 1005.0 446.0 L 1008.0 452.0 L 1011.0 455.0 L 1011.0 456.0 L 1012.0 456.0 L 1015.0 459.0 L 1017.0 459.0 L 1020.0 461.0 L 1025.0 461.0 L 1026.0 462.0 L 1034.0 462.0 L 1035.0 461.0 L 1039.0 461.0 L 1040.0 460.0 L 1042.0 460.0 L 1046.0 458.0 L 1052.0 452.0 L 1054.0 448.0 L 1054.0 446.0 L 1055.0 445.0 L 1055.0 442.0 L 1056.0 441.0 L 1056.0 437.0 L 1057.0 436.0 L 1057.0 360.0 L 1056.0 359.0 L 1056.0 354.0 L 1055.0 353.0 L 1054.0 347.0 L 1052.0 343.0 L 1046.0 337.0 L 1042.0 335.0 L 1040.0 335.0 L 1039.0 334.0 Z M 650.0 336.0 L 646.0 339.0 L 645.0 339.0 L 641.0 343.0 L 638.0 349.0 L 638.0 351.0 L 637.0 352.0 L 637.0 359.0 L 636.0 360.0 L 637.0 361.0 L 637.0 370.0 L 638.0 371.0 L 639.0 379.0 L 640.0 380.0 L 640.0 382.0 L 641.0 383.0 L 641.0 385.0 L 642.0 386.0 L 642.0 388.0 L 643.0 389.0 L 644.0 393.0 L 637.0 403.0 L 632.0 413.0 L 632.0 415.0 L 630.0 418.0 L 630.0 421.0 L 629.0 422.0 L 629.0 429.0 L 628.0 430.0 L 628.0 432.0 L 629.0 433.0 L 629.0 440.0 L 630.0 441.0 L 631.0 446.0 L 633.0 450.0 L 638.0 456.0 L 639.0 456.0 L 644.0 460.0 L 646.0 460.0 L 650.0 462.0 L 665.0 462.0 L 675.0 457.0 L 676.0 457.0 L 679.0 460.0 L 699.0 460.0 L 699.0 459.0 L 695.0 454.0 L 694.0 451.0 L 692.0 449.0 L 688.0 442.0 L 688.0 440.0 L 690.0 436.0 L 690.0 433.0 L 691.0 432.0 L 691.0 426.0 L 692.0 425.0 L 692.0 400.0 L 674.0 400.0 L 674.0 414.0 L 673.0 415.0 L 664.0 397.0 L 664.0 395.0 L 666.0 393.0 L 666.0 392.0 L 676.0 381.0 L 676.0 380.0 L 678.0 378.0 L 682.0 371.0 L 682.0 369.0 L 684.0 365.0 L 684.0 351.0 L 683.0 350.0 L 683.0 348.0 L 681.0 344.0 L 675.0 338.0 L 671.0 336.0 L 669.0 336.0 L 668.0 335.0 L 663.0 335.0 L 662.0 334.0 Z M 572.0 334.0 L 571.0 335.0 L 569.0 335.0 L 565.0 337.0 L 560.0 341.0 L 556.0 348.0 L 555.0 354.0 L 554.0 355.0 L 554.0 361.0 L 553.0 362.0 L 553.0 434.0 L 554.0 435.0 L 554.0 441.0 L 555.0 442.0 L 555.0 445.0 L 557.0 448.0 L 557.0 450.0 L 558.0 452.0 L 565.0 459.0 L 569.0 460.0 L 570.0 461.0 L 573.0 461.0 L 574.0 462.0 L 586.0 462.0 L 587.0 461.0 L 593.0 460.0 L 597.0 457.0 L 598.0 457.0 L 601.0 454.0 L 605.0 447.0 L 606.0 441.0 L 607.0 440.0 L 607.0 433.0 L 608.0 432.0 L 608.0 414.0 L 587.0 414.0 L 587.0 438.0 L 586.0 439.0 L 585.0 443.0 L 583.0 445.0 L 581.0 445.0 L 580.0 446.0 L 579.0 445.0 L 577.0 445.0 L 575.0 443.0 L 575.0 441.0 L 574.0 440.0 L 574.0 404.0 L 575.0 403.0 L 608.0 403.0 L 608.0 361.0 L 607.0 360.0 L 607.0 355.0 L 606.0 354.0 L 605.0 348.0 L 602.0 344.0 L 602.0 343.0 L 596.0 337.0 L 592.0 335.0 L 589.0 335.0 L 588.0 334.0 Z M 383.0 334.0 L 382.0 335.0 L 377.0 336.0 L 370.0 342.0 L 369.0 345.0 L 367.0 347.0 L 366.0 353.0 L 365.0 354.0 L 365.0 359.0 L 364.0 360.0 L 364.0 436.0 L 365.0 437.0 L 365.0 442.0 L 366.0 443.0 L 367.0 448.0 L 369.0 452.0 L 373.0 457.0 L 374.0 457.0 L 378.0 460.0 L 384.0 461.0 L 385.0 462.0 L 397.0 462.0 L 398.0 461.0 L 404.0 460.0 L 409.0 456.0 L 410.0 456.0 L 413.0 452.0 L 416.0 446.0 L 417.0 440.0 L 418.0 439.0 L 419.0 414.0 L 398.0 414.0 L 398.0 436.0 L 397.0 437.0 L 397.0 441.0 L 394.0 445.0 L 388.0 445.0 L 385.0 441.0 L 385.0 404.0 L 386.0 403.0 L 419.0 403.0 L 419.0 366.0 L 418.0 365.0 L 418.0 356.0 L 417.0 355.0 L 416.0 349.0 L 413.0 343.0 L 405.0 336.0 L 403.0 336.0 L 399.0 334.0 Z M 768.0 334.0 L 767.0 335.0 L 764.0 335.0 L 762.0 336.0 L 754.0 343.0 L 752.0 347.0 L 751.0 352.0 L 750.0 353.0 L 750.0 358.0 L 749.0 359.0 L 749.0 437.0 L 750.0 438.0 L 750.0 442.0 L 751.0 443.0 L 751.0 446.0 L 753.0 449.0 L 753.0 451.0 L 758.0 457.0 L 759.0 457.0 L 763.0 460.0 L 769.0 461.0 L 770.0 462.0 L 781.0 462.0 L 782.0 461.0 L 786.0 461.0 L 792.0 458.0 L 798.0 452.0 L 801.0 446.0 L 801.0 443.0 L 802.0 442.0 L 802.0 439.0 L 803.0 438.0 L 803.0 414.0 L 783.0 414.0 L 783.0 434.0 L 782.0 435.0 L 782.0 440.0 L 778.0 445.0 L 773.0 445.0 L 770.0 441.0 L 770.0 404.0 L 771.0 403.0 L 803.0 403.0 L 803.0 356.0 L 802.0 355.0 L 802.0 352.0 L 801.0 351.0 L 801.0 349.0 L 799.0 345.0 L 793.0 338.0 L 787.0 335.0 L 785.0 335.0 L 784.0 334.0 Z M 983.0 336.0 L 981.0 336.0 L 980.0 335.0 L 967.0 335.0 L 960.0 339.0 L 959.0 338.0 L 959.0 336.0 L 938.0 336.0 L 938.0 460.0 L 959.0 460.0 L 959.0 359.0 L 964.0 354.0 L 966.0 353.0 L 970.0 353.0 L 972.0 355.0 L 972.0 460.0 L 993.0 460.0 L 993.0 355.0 L 992.0 354.0 L 992.0 349.0 L 991.0 348.0 L 991.0 345.0 L 990.0 343.0 L 988.0 341.0 L 988.0 340.0 Z M 473.0 336.0 L 471.0 336.0 L 470.0 335.0 L 458.0 335.0 L 457.0 336.0 L 453.0 337.0 L 451.0 339.0 L 449.0 338.0 L 449.0 336.0 L 428.0 336.0 L 428.0 460.0 L 449.0 460.0 L 449.0 359.0 L 456.0 353.0 L 461.0 353.0 L 462.0 354.0 L 462.0 360.0 L 463.0 361.0 L 463.0 460.0 L 483.0 460.0 L 483.0 352.0 L 482.0 351.0 L 482.0 347.0 L 481.0 346.0 L 481.0 344.0 L 479.0 342.0 L 479.0 341.0 L 475.0 337.0 Z M 292.0 334.0 L 291.0 335.0 L 289.0 335.0 L 285.0 337.0 L 281.0 340.0 L 281.0 341.0 L 278.0 344.0 L 276.0 348.0 L 276.0 350.0 L 275.0 351.0 L 275.0 355.0 L 274.0 356.0 L 274.0 362.0 L 273.0 363.0 L 273.0 432.0 L 274.0 433.0 L 274.0 440.0 L 275.0 441.0 L 276.0 447.0 L 279.0 453.0 L 284.0 458.0 L 285.0 458.0 L 287.0 460.0 L 293.0 461.0 L 294.0 462.0 L 306.0 462.0 L 307.0 461.0 L 313.0 460.0 L 317.0 457.0 L 318.0 457.0 L 321.0 454.0 L 325.0 447.0 L 326.0 441.0 L 327.0 440.0 L 327.0 430.0 L 328.0 429.0 L 328.0 414.0 L 307.0 414.0 L 307.0 439.0 L 306.0 440.0 L 306.0 442.0 L 303.0 445.0 L 298.0 445.0 L 295.0 442.0 L 295.0 440.0 L 294.0 439.0 L 294.0 355.0 L 298.0 350.0 L 303.0 350.0 L 307.0 354.0 L 307.0 378.0 L 328.0 378.0 L 328.0 358.0 L 327.0 357.0 L 327.0 353.0 L 326.0 352.0 L 325.0 347.0 L 317.0 338.0 L 316.0 338.0 L 314.0 336.0 L 312.0 336.0 L 308.0 334.0 Z M 697.0 286.0 L 697.0 304.0 L 703.0 304.0 L 704.0 303.0 L 715.0 303.0 L 718.0 305.0 L 718.0 321.0 L 719.0 322.0 L 719.0 460.0 L 740.0 460.0 L 740.0 323.0 L 741.0 322.0 L 741.0 305.0 L 745.0 303.0 L 761.0 303.0 L 761.0 286.0 Z M 840.0 333.0 L 839.0 334.0 L 832.0 334.0 L 831.0 335.0 L 829.0 335.0 L 821.0 340.0 L 821.0 341.0 L 818.0 344.0 L 816.0 348.0 L 815.0 354.0 L 814.0 355.0 L 814.0 362.0 L 813.0 363.0 L 813.0 433.0 L 814.0 434.0 L 814.0 440.0 L 815.0 441.0 L 815.0 445.0 L 819.0 453.0 L 825.0 459.0 L 829.0 460.0 L 830.0 461.0 L 833.0 461.0 L 834.0 462.0 L 846.0 462.0 L 847.0 461.0 L 853.0 460.0 L 857.0 457.0 L 858.0 457.0 L 861.0 454.0 L 862.0 451.0 L 865.0 447.0 L 865.0 444.0 L 866.0 443.0 L 866.0 440.0 L 867.0 439.0 L 867.0 429.0 L 868.0 428.0 L 868.0 414.0 L 847.0 414.0 L 847.0 438.0 L 846.0 439.0 L 846.0 441.0 L 843.0 445.0 L 838.0 445.0 L 834.0 440.0 L 834.0 434.0 L 833.0 433.0 L 833.0 363.0 L 834.0 362.0 L 834.0 355.0 L 835.0 353.0 L 838.0 350.0 L 843.0 350.0 L 847.0 355.0 L 847.0 378.0 L 868.0 378.0 L 868.0 359.0 L 867.0 358.0 L 867.0 353.0 L 866.0 352.0 L 866.0 350.0 L 863.0 344.0 L 854.0 336.0 L 852.0 336.0 L 848.0 334.0 L 841.0 334.0 Z M 512.0 334.0 L 511.0 335.0 L 508.0 335.0 L 504.0 337.0 L 498.0 343.0 L 496.0 347.0 L 495.0 352.0 L 494.0 353.0 L 494.0 358.0 L 493.0 359.0 L 493.0 437.0 L 494.0 438.0 L 494.0 442.0 L 495.0 443.0 L 495.0 446.0 L 497.0 449.0 L 497.0 451.0 L 502.0 457.0 L 503.0 457.0 L 507.0 460.0 L 513.0 461.0 L 514.0 462.0 L 525.0 462.0 L 526.0 461.0 L 530.0 461.0 L 536.0 458.0 L 542.0 452.0 L 545.0 446.0 L 545.0 443.0 L 546.0 442.0 L 546.0 437.0 L 547.0 436.0 L 547.0 414.0 L 527.0 414.0 L 527.0 434.0 L 526.0 435.0 L 526.0 440.0 L 522.0 445.0 L 517.0 445.0 L 515.0 443.0 L 514.0 439.0 L 513.0 438.0 L 513.0 358.0 L 514.0 357.0 L 514.0 354.0 L 518.0 350.0 L 523.0 350.0 L 526.0 353.0 L 526.0 356.0 L 527.0 357.0 L 527.0 378.0 L 547.0 378.0 L 547.0 355.0 L 546.0 354.0 L 546.0 351.0 L 542.0 343.0 L 535.0 337.0 L 531.0 335.0 L 529.0 335.0 L 528.0 334.0 Z M 1063.0 287.0 L 1063.0 403.0 L 1064.0 404.0 L 1064.0 460.0 L 1084.0 460.0 L 1084.0 404.0 L 1085.0 403.0 L 1085.0 287.0 Z M 333.0 335.0 L 333.0 403.0 L 334.0 404.0 L 334.0 460.0 L 355.0 460.0 L 355.0 335.0 Z M 1183.0 352.0 L 1187.0 352.0 L 1189.0 354.0 L 1190.0 354.0 L 1195.0 360.0 L 1195.0 436.0 L 1193.0 438.0 L 1193.0 439.0 L 1187.0 444.0 L 1183.0 444.0 L 1181.0 443.0 L 1179.0 440.0 L 1179.0 358.0 L 1180.0 357.0 L 1180.0 355.0 Z M 1028.0 350.0 L 1032.0 350.0 L 1035.0 353.0 L 1036.0 355.0 L 1036.0 360.0 L 1037.0 361.0 L 1037.0 434.0 L 1036.0 435.0 L 1036.0 440.0 L 1032.0 445.0 L 1028.0 445.0 L 1025.0 442.0 L 1024.0 440.0 L 1024.0 437.0 L 1023.0 436.0 L 1023.0 359.0 L 1024.0 358.0 L 1024.0 355.0 L 1025.0 353.0 Z M 1120.0 350.0 L 1123.0 350.0 L 1125.0 351.0 L 1127.0 353.0 L 1127.0 355.0 L 1128.0 356.0 L 1128.0 439.0 L 1127.0 440.0 L 1127.0 442.0 L 1124.0 445.0 L 1119.0 445.0 L 1117.0 443.0 L 1116.0 439.0 L 1115.0 438.0 L 1115.0 357.0 L 1116.0 356.0 L 1116.0 354.0 Z M 389.0 350.0 L 393.0 350.0 L 395.0 351.0 L 398.0 356.0 L 398.0 385.0 L 397.0 386.0 L 386.0 386.0 L 385.0 385.0 L 385.0 354.0 L 386.0 352.0 Z M 578.0 350.0 L 583.0 350.0 L 586.0 353.0 L 586.0 355.0 L 587.0 356.0 L 587.0 385.0 L 586.0 386.0 L 575.0 386.0 L 574.0 385.0 L 574.0 355.0 Z M 773.0 350.0 L 778.0 350.0 L 780.0 351.0 L 782.0 354.0 L 782.0 357.0 L 783.0 358.0 L 783.0 384.0 L 781.0 386.0 L 771.0 386.0 L 770.0 385.0 L 770.0 354.0 Z M 651.0 413.0 L 653.0 414.0 L 660.0 429.0 L 662.0 431.0 L 663.0 434.0 L 668.0 441.0 L 663.0 446.0 L 661.0 447.0 L 656.0 447.0 L 654.0 446.0 L 650.0 442.0 L 648.0 438.0 L 648.0 436.0 L 647.0 435.0 L 647.0 425.0 L 648.0 424.0 L 648.0 420.0 L 649.0 419.0 L 649.0 417.0 Z M 662.0 349.0 L 666.0 353.0 L 666.0 362.0 L 665.0 363.0 L 665.0 365.0 L 662.0 371.0 L 660.0 373.0 L 660.0 374.0 L 658.0 376.0 L 657.0 376.0 L 656.0 375.0 L 655.0 365.0 L 654.0 364.0 L 654.0 356.0 L 655.0 355.0 L 655.0 353.0 L 659.0 349.0 Z" fill="#231f20" fill-rule="evenodd"/>
</svg>
